<svg xmlns="http://www.w3.org/2000/svg" xmlns:xlink="http://www.w3.org/1999/xlink" width="22.686" height="25.808" viewBox="0 0 22.686 25.808">
  <defs>
    <linearGradient id="linear-gradient" x1="0.5" x2="0.5" y2="1" gradientUnits="objectBoundingBox">
      <stop offset="0" stop-color="#fd8c4d"/>
      <stop offset="1" stop-color="#fd6c4d"/>
    </linearGradient>
  </defs>
  <g id="Group" transform="translate(-990 -355)">
    <path id="Vector" d="M4.545,0h13.6a1.071,1.071,0,0,1,1.046,1.058V3.012c4.988.814,4.5,9.525-.563,9.607a7.876,7.876,0,0,1-5.631,4.4V21.33h1.77c.322,0,.563.326.644.651l.8,3.175c.08.326-.322.651-.644.651H7.2c-.4,0-.8-.326-.724-.651l.8-3.175c.161-.326.322-.651.724-.651H9.694V17.015a7.876,7.876,0,0,1-5.631-4.4c-5.068-.081-5.551-8.793-.563-9.607V1.058A1.071,1.071,0,0,1,4.545,0ZM11.7,4.152l.8,2.361h2.574c.885,0,.885.244.161.733L13.233,8.711l.8,2.524c.241.814,0,.9-.644.407l-2.011-1.465L9.292,11.642c-.724.57-.8.407-.563-.407l.8-2.442L7.441,7.246c-.724-.488-.563-.733.241-.651h2.494l.8-2.524C11.222,3.257,11.464,3.338,11.7,4.152Zm7.481,6.839V4.559C21.841,5.373,21.841,10.177,19.186,10.991Zm-15.687,0V4.559C.845,5.373.845,10.177,3.5,10.991Z" transform="translate(990 355)" fill="url(#linear-gradient)"/>
  </g>
</svg>
