<svg xmlns="http://www.w3.org/2000/svg" xmlns:xlink="http://www.w3.org/1999/xlink" width="22.908" height="26.763" viewBox="0 0 22.908 26.763">
  <defs>
    <linearGradient id="linear-gradient" x1="0.5" x2="0.5" y2="1" gradientUnits="objectBoundingBox">
      <stop offset="0" stop-color="#fd8c4d"/>
      <stop offset="1" stop-color="#fd6c4d"/>
    </linearGradient>
  </defs>
  <g id="Group" transform="translate(-990 -247)">
    <path id="Vector" d="M19.042,11.653,16.9,8.352a1.752,1.752,0,0,1-.2-.649A8.441,8.441,0,0,0,9.173,0a2.67,2.67,0,0,1-.892,2.257L6.859,3.471,7.3,5.3a2.64,2.64,0,0,1-.5,2.257A2.676,2.676,0,0,1,4.74,8.578a2.617,2.617,0,0,1-1.366-.367L1.784,7.223.223,8.211A.558.558,0,0,1,0,8.324v.141a9.764,9.764,0,0,0,3.374,7.28,1.1,1.1,0,0,1,.39.846v5.474a.735.735,0,0,0,.669.734h7.221a.745.745,0,0,0,.809-.734V18.622a.4.4,0,0,1,.39-.4h2.509a1.407,1.407,0,0,0,1.394-1.411V13.374a.281.281,0,0,1,.279-.282h1.227A.918.918,0,0,0,19.042,11.653Z" transform="translate(993.705 250.963)" fill="url(#linear-gradient)"/>
    <path id="Vector-2" data-name="Vector" d="M5.964,9.262l2.119,1.3a.782.782,0,0,0,1.171-.846L8.668,7.287a.841.841,0,0,1,.251-.79l1.9-1.637a.788.788,0,0,0-.446-1.383l-2.481-.2a.8.8,0,0,1-.669-.48L6.27.487a.783.783,0,0,0-1.45,0L3.873,2.8a.766.766,0,0,1-.669.48l-2.481.2A.766.766,0,0,0,.276,4.832l1.9,1.637a.841.841,0,0,1,.251.79L1.837,9.713a.782.782,0,0,0,1.171.846l2.119-1.3A.879.879,0,0,1,5.964,9.262Z" transform="translate(990 247)" fill="url(#linear-gradient)"/>
  </g>
</svg>
