<svg xmlns="http://www.w3.org/2000/svg" xmlns:xlink="http://www.w3.org/1999/xlink" width="27.852" height="22.775" viewBox="0 0 27.852 22.775">
  <defs>
    <linearGradient id="linear-gradient" x1="0.5" x2="0.5" y2="1" gradientUnits="objectBoundingBox">
      <stop offset="0" stop-color="#fd8c4d"/>
      <stop offset="1" stop-color="#fd6c4d"/>
    </linearGradient>
  </defs>
  <g id="Group" transform="translate(-987 -465)">
    <path id="Vector" d="M13.125,17.574l-1.362-.031a1.036,1.036,0,0,1-.96-.689,1.075,1.075,0,0,1,.279-1.159l3.188-2.913V.94A.937.937,0,0,0,13.342,0H.929A.937.937,0,0,0,0,.94v20.9a.937.937,0,0,0,.929.94H5.2v-4.26a.379.379,0,0,1,.371-.376H8.791a.379.379,0,0,1,.371.376v4.229h4.148a1.653,1.653,0,0,1-.124-.658V17.574ZM2.507,4.981A.279.279,0,0,1,2.786,4.7H5.665a.279.279,0,0,1,.279.282V7.894a.279.279,0,0,1-.279.282H2.786a.279.279,0,0,1-.279-.282Zm3.5,9.21a.279.279,0,0,1-.279.282H2.848a.279.279,0,0,1-.279-.282V11.278A.279.279,0,0,1,2.848,11H5.727a.279.279,0,0,1,.279.282ZM8.265,4.95a.279.279,0,0,1,.279-.282h2.91a.279.279,0,0,1,.279.282V7.863a.279.279,0,0,1-.279.282H8.574A.279.279,0,0,1,8.3,7.863V4.95Zm.341,9.523a.279.279,0,0,1-.279-.282V11.278A.279.279,0,0,1,8.605,11h2.879a.279.279,0,0,1,.279.282v2.913a.279.279,0,0,1-.279.282Z" transform="translate(987 465)" fill="url(#linear-gradient)"/>
    <path id="Vector-2" data-name="Vector" d="M13.744,5.075V.846H11.453v2.1L8.42.125a.525.525,0,0,0-.681,0L0,7.174l2.384.063v5.545A.625.625,0,0,0,3,13.408H6.408V10.244a.691.691,0,0,1,.681-.689H9.132a.691.691,0,0,1,.681.689v3.164h3.374a.625.625,0,0,0,.619-.627V7.362l2.26-.157Zm-4.21.815a.492.492,0,0,1-.5.5H7.182a.492.492,0,0,1-.5-.5v-.5a.492.492,0,0,1,.5-.5H9.039a.492.492,0,0,1,.5.5Z" transform="translate(998.787 474.314)" fill="url(#linear-gradient)"/>
  </g>
</svg>
